<?xml version="1.0" encoding="UTF-8" standalone="no"?>
<!DOCTYPE svg PUBLIC "-//W3C//DTD SVG 20010904//EN"
              "http://www.w3.org/TR/2001/REC-SVG-20010904/DTD/svg10.dtd">

<svg xmlns="http://www.w3.org/2000/svg"
     width="44.8889in" height="49.3333in"
     viewBox="0 0 3232 3552">
  <path id="Selection"
        fill="none" stroke="black" stroke-width="1"
        d="M 0.00,0.00
           C 0.00,0.00 3232.00,0.00 3232.00,0.00
             3232.00,0.00 3232.00,3552.00 3232.00,3552.00
             3232.00,3552.00 0.00,3552.00 0.00,3552.00
             0.00,3552.00 0.00,0.00 0.00,0.00 Z
           M 1464.00,576.00
           C 1454.50,580.49 1446.87,594.00 1438.00,598.44
             1429.93,602.49 1413.82,602.64 1406.00,606.56
             1399.00,610.06 1394.45,619.04 1384.00,622.91
             1375.28,626.14 1364.58,625.68 1361.17,627.43
             1361.17,627.43 1340.00,647.35 1340.00,647.35
             1335.06,650.81 1327.93,651.93 1322.00,652.00
             1319.47,652.03 1312.34,651.69 1310.37,652.57
             1308.50,653.41 1305.54,657.33 1303.96,659.00
             1300.28,662.87 1292.32,671.17 1288.00,673.64
             1279.47,678.49 1260.93,677.89 1251.00,678.00
             1247.93,678.04 1238.72,678.79 1236.28,680.17
             1231.19,683.07 1223.52,695.68 1212.00,699.91
             1203.55,703.01 1190.07,703.00 1181.00,703.00
             1167.62,703.00 1154.10,703.32 1141.00,706.50
             1130.54,709.04 1127.61,717.41 1119.00,722.87
             1111.44,727.66 1095.96,728.99 1087.00,729.00
             1087.00,729.00 964.00,729.00 964.00,729.00
             956.66,728.91 938.99,727.64 933.00,724.00
             927.41,720.60 913.33,704.53 910.72,702.58
             906.69,699.58 900.01,700.90 891.00,695.04
             884.55,690.84 877.83,681.49 871.00,677.13
             871.00,677.13 852.00,667.11 852.00,667.11
             848.24,666.48 841.92,671.75 840.60,675.09
             839.88,676.90 840.00,680.01 840.00,682.00
             840.00,682.00 840.00,704.00 840.00,704.00
             839.91,711.16 838.47,723.11 834.35,729.00
             834.35,729.00 815.02,749.28 815.02,749.28
             812.83,753.11 814.21,765.41 808.03,775.00
             804.12,781.09 795.96,787.20 791.27,793.00
             787.17,798.08 787.67,801.60 781.90,808.00
             778.46,811.81 770.07,819.24 767.93,823.00
             764.30,829.40 768.02,838.88 762.44,850.00
             760.23,854.42 750.00,864.24 746.00,867.90
             744.14,869.59 740.50,871.99 739.76,874.21
             738.68,876.55 739.76,880.41 739.76,883.00
             740.78,898.37 730.95,908.48 720.00,917.79
             720.00,917.79 712.51,923.39 712.51,923.39
             710.02,926.13 710.33,928.93 706.47,934.00
             706.47,934.00 694.28,947.00 694.28,947.00
             688.81,953.88 690.24,969.82 684.92,979.00
             682.25,983.61 674.99,989.54 671.21,994.00
             666.02,1000.13 666.44,1004.55 661.47,1011.00
             661.47,1011.00 646.60,1026.42 646.60,1026.42
             644.76,1028.94 644.82,1032.88 644.11,1036.00
             642.91,1041.30 641.45,1046.29 638.65,1051.00
             635.85,1055.71 625.38,1065.86 621.00,1069.90
             621.00,1069.90 616.57,1073.86 616.57,1073.86
             614.29,1076.56 615.11,1080.70 614.96,1084.00
             614.79,1087.91 613.53,1094.39 612.07,1098.00
             609.35,1104.71 600.38,1112.85 595.00,1117.96
             593.77,1119.13 589.68,1122.49 589.01,1123.59
             588.04,1125.28 589.03,1134.26 589.01,1137.00
             588.83,1151.36 583.57,1155.44 574.00,1165.00
             567.54,1171.46 565.18,1174.84 556.00,1177.00
             556.46,1180.29 557.52,1183.69 557.40,1187.00
             556.89,1200.93 547.25,1209.86 538.00,1219.00
             532.15,1224.78 526.06,1230.70 518.00,1233.00
             517.43,1239.74 514.72,1252.70 510.61,1258.00
             510.61,1258.00 491.58,1278.17 491.58,1278.17
             490.15,1281.49 489.01,1302.37 489.00,1307.00
             488.98,1322.28 485.68,1327.36 475.00,1338.00
             470.09,1342.90 467.25,1345.78 460.91,1349.00
             462.93,1357.57 464.69,1366.60 460.91,1375.00
             458.35,1380.33 448.58,1389.76 444.00,1393.90
             434.80,1402.20 424.24,1401.61 418.09,1404.65
             414.79,1406.28 412.45,1410.24 409.91,1413.00
             409.91,1413.00 395.59,1427.42 395.59,1427.42
             395.59,1427.42 388.48,1455.00 388.48,1455.00
             384.12,1464.54 368.04,1476.39 366.14,1479.32
             364.50,1481.84 362.45,1493.07 358.93,1499.00
             356.80,1502.57 352.05,1506.95 349.00,1510.00
             337.90,1521.10 334.64,1524.43 319.00,1528.00
             318.05,1547.43 305.50,1556.96 293.21,1569.72
             293.21,1569.72 283.91,1582.00 283.91,1582.00
             283.91,1582.00 267.43,1598.42 267.43,1598.42
             262.65,1604.13 267.33,1609.55 262.45,1623.00
             260.18,1629.29 256.59,1632.40 252.00,1637.00
             248.70,1640.31 242.69,1646.72 239.00,1649.01
             231.64,1653.57 223.24,1653.00 215.00,1653.00
             215.00,1660.84 215.66,1672.19 211.28,1679.00
             211.28,1679.00 191.99,1699.42 191.99,1699.42
             190.45,1702.11 191.14,1707.77 190.91,1711.00
             190.47,1717.35 188.35,1724.91 184.47,1730.00
             180.03,1735.83 167.68,1748.17 161.00,1750.91
             148.42,1756.07 140.19,1753.02 128.00,1753.00
             128.00,1753.00 73.00,1753.00 73.00,1753.00
             57.18,1752.98 53.85,1749.98 43.00,1739.00
             38.29,1734.22 35.00,1730.77 33.52,1724.00
             33.52,1724.00 32.25,1710.00 32.25,1710.00
             32.23,1707.20 33.50,1702.78 32.25,1700.27
             31.47,1698.16 27.89,1696.38 26.00,1694.78
             26.00,1694.78 11.00,1681.00 11.00,1681.00
             11.00,1681.00 11.00,3549.00 11.00,3549.00
             11.00,3549.00 3211.00,3549.00 3211.00,3549.00
             3211.00,3549.00 3211.00,1531.00 3211.00,1531.00
             3203.83,1536.14 3198.13,1545.23 3190.00,1548.00
             3190.03,1558.32 3192.55,1568.75 3185.58,1578.00
             3183.65,1580.56 3171.65,1592.52 3169.00,1594.66
             3169.00,1594.66 3161.61,1599.68 3161.61,1599.68
             3161.61,1599.68 3152.99,1610.00 3152.99,1610.00
             3152.99,1610.00 3139.57,1623.32 3139.57,1623.32
             3138.73,1625.27 3139.01,1631.58 3139.00,1634.00
             3138.97,1639.36 3138.37,1644.39 3135.30,1649.00
             3131.54,1654.64 3119.37,1664.30 3117.00,1669.00
             3115.05,1672.95 3117.10,1681.85 3117.00,1687.00
             3116.70,1699.44 3111.28,1704.71 3103.00,1713.00
             3103.00,1713.00 3094.00,1721.61 3094.00,1721.61
             3094.00,1721.61 3088.17,1725.63 3088.17,1725.63
             3088.17,1725.63 3072.00,1741.96 3072.00,1741.96
             3072.00,1741.96 3063.51,1748.63 3063.51,1748.63
             3059.86,1752.43 3062.37,1755.99 3058.18,1764.00
             3054.67,1770.70 3048.31,1774.67 3044.10,1781.00
             3038.46,1789.49 3038.83,1796.96 3033.47,1804.00
             3031.15,1807.04 3021.01,1817.23 3018.00,1819.61
             3018.00,1819.61 3011.39,1824.39 3011.39,1824.39
             3011.39,1824.39 3004.90,1833.00 3004.90,1833.00
             3004.90,1833.00 2993.00,1844.82 2993.00,1844.82
             2993.00,1844.82 2987.63,1849.51 2987.63,1849.51
             2985.28,1852.14 2985.05,1854.39 2980.90,1859.00
             2980.90,1859.00 2964.21,1875.28 2964.21,1875.28
             2964.21,1875.28 2954.00,1887.00 2954.00,1887.00
             2954.00,1887.00 2941.31,1899.42 2941.31,1899.42
             2937.50,1903.77 2937.98,1914.12 2932.36,1922.00
             2932.36,1922.00 2916.39,1939.00 2916.39,1939.00
             2912.31,1944.21 2912.35,1948.18 2908.61,1953.00
             2902.56,1960.79 2894.35,1966.77 2887.39,1973.59
             2887.39,1973.59 2879.96,1983.00 2879.96,1983.00
             2879.96,1983.00 2862.28,2000.28 2862.28,2000.28
             2862.28,2000.28 2844.00,2018.90 2844.00,2018.90
             2844.00,2018.90 2836.37,2024.63 2836.37,2024.63
             2836.37,2024.63 2828.00,2034.00 2828.00,2034.00
             2828.00,2034.00 2817.00,2044.79 2817.00,2044.79
             2817.00,2044.79 2811.37,2049.37 2811.37,2049.37
             2811.37,2049.37 2804.96,2057.00 2804.96,2057.00
             2804.96,2057.00 2786.84,2074.37 2786.84,2074.37
             2784.91,2076.88 2784.91,2079.74 2781.61,2084.00
             2781.61,2084.00 2768.51,2098.00 2768.51,2098.00
             2763.76,2104.77 2765.68,2120.07 2757.66,2130.00
             2751.94,2137.08 2744.57,2142.77 2738.17,2149.17
             2738.17,2149.17 2720.00,2167.96 2720.00,2167.96
             2720.00,2167.96 2711.70,2174.63 2711.70,2174.63
             2709.57,2176.93 2709.51,2179.60 2705.79,2184.00
             2702.30,2188.13 2694.18,2195.10 2691.85,2199.00
             2689.20,2203.46 2689.30,2216.45 2684.92,2224.00
             2680.28,2231.99 2668.13,2240.99 2661.39,2247.59
             2661.39,2247.59 2655.79,2255.00 2655.79,2255.00
             2653.19,2258.05 2640.95,2270.33 2638.00,2272.30
             2633.24,2275.47 2622.75,2277.73 2617.00,2278.00
             2617.00,2282.94 2617.28,2287.14 2616.10,2292.00
             2613.30,2303.52 2604.78,2312.21 2596.00,2319.70
             2596.00,2319.70 2588.61,2325.60 2588.61,2325.60
             2588.61,2325.60 2579.00,2337.00 2579.00,2337.00
             2579.00,2337.00 2564.81,2350.59 2564.81,2350.59
             2562.67,2353.26 2561.93,2358.99 2558.36,2364.00
             2553.28,2371.14 2548.16,2372.74 2542.78,2383.00
             2538.74,2390.73 2537.49,2399.77 2532.61,2406.00
             2527.32,2412.77 2520.47,2417.90 2514.10,2423.51
             2514.10,2423.51 2505.96,2433.00 2505.96,2433.00
             2505.96,2433.00 2491.57,2447.58 2491.57,2447.58
             2489.23,2450.78 2490.17,2455.24 2489.91,2459.00
             2489.56,2464.12 2488.18,2471.56 2485.64,2476.00
             2483.19,2480.27 2472.03,2491.43 2468.00,2494.61
             2468.00,2494.61 2461.37,2499.39 2461.37,2499.39
             2461.37,2499.39 2456.79,2505.00 2456.79,2505.00
             2456.79,2505.00 2448.00,2514.00 2448.00,2514.00
             2448.00,2514.00 2436.49,2524.37 2436.49,2524.37
             2436.49,2524.37 2430.67,2533.00 2430.67,2533.00
             2430.67,2533.00 2423.00,2541.00 2423.00,2541.00
             2413.59,2550.37 2408.45,2553.29 2395.00,2552.84
             2392.75,2552.93 2387.88,2552.12 2386.17,2552.84
             2383.96,2553.42 2381.59,2556.33 2379.96,2558.00
             2379.96,2558.00 2368.00,2569.90 2368.00,2569.90
             2368.00,2569.90 2361.63,2575.37 2361.63,2575.37
             2361.63,2575.37 2356.79,2582.00 2356.79,2582.00
             2356.79,2582.00 2348.00,2591.00 2348.00,2591.00
             2348.00,2591.00 2337.32,2600.37 2337.32,2600.37
             2337.32,2600.37 2331.82,2607.00 2331.82,2607.00
             2331.82,2607.00 2321.00,2617.90 2321.00,2617.90
             2321.00,2617.90 2313.41,2623.63 2313.41,2623.63
             2310.53,2626.41 2310.91,2629.12 2306.79,2634.00
             2306.79,2634.00 2289.59,2650.59 2289.59,2650.59
             2287.66,2652.91 2288.16,2654.98 2286.26,2658.00
             2284.63,2660.61 2279.39,2665.63 2277.00,2668.00
             2274.68,2670.28 2272.09,2673.07 2269.00,2674.26
             2265.90,2675.46 2263.50,2674.48 2260.28,2676.74
             2260.28,2676.74 2243.00,2693.90 2243.00,2693.90
             2243.00,2693.90 2237.26,2698.59 2237.26,2698.59
             2234.98,2700.73 2233.63,2703.59 2231.66,2706.00
             2228.32,2710.11 2216.38,2722.30 2212.00,2724.43
             2202.06,2729.29 2187.74,2726.88 2177.00,2727.00
             2177.00,2727.00 2153.00,2729.04 2153.00,2729.04
             2153.00,2729.04 2121.00,2729.04 2121.00,2729.04
             2111.62,2729.97 2108.28,2733.25 2097.00,2732.99
             2090.15,2732.83 2083.64,2730.17 2077.00,2728.65
             2071.16,2727.31 2064.18,2726.60 2059.00,2723.64
             2054.73,2721.19 2043.57,2710.03 2040.39,2706.00
             2038.32,2703.38 2037.36,2700.83 2034.79,2698.63
             2034.79,2698.63 2029.00,2694.61 2029.00,2694.61
             2025.44,2691.80 2013.16,2679.61 2011.09,2676.00
             2008.05,2670.71 2007.01,2658.22 2007.00,2652.00
             2007.00,2652.00 2007.00,2355.00 2007.00,2355.00
             2007.00,2355.00 2007.00,2304.00 2007.00,2304.00
             2007.00,2295.74 2006.91,2281.46 2010.21,2274.00
             2013.00,2267.69 2026.87,2254.29 2033.00,2251.00
             2030.61,2245.95 2027.48,2243.21 2023.00,2240.00
             2008.63,2253.70 2005.11,2249.06 1991.00,2256.90
             1983.35,2261.16 1980.09,2267.11 1974.00,2271.03
             1963.54,2277.77 1949.97,2278.00 1938.00,2278.00
             1934.82,2293.52 1925.20,2294.93 1918.58,2305.00
             1918.58,2305.00 1912.08,2326.00 1912.08,2326.00
             1909.86,2330.65 1905.62,2334.38 1902.00,2338.00
             1891.81,2348.20 1888.19,2352.93 1873.00,2353.00
             1862.07,2353.05 1860.71,2352.72 1852.00,2346.12
             1850.13,2344.70 1847.70,2342.90 1845.42,2344.79
             1843.24,2346.61 1844.76,2349.16 1845.96,2351.00
             1848.75,2355.26 1853.09,2358.30 1852.58,2364.00
             1852.01,2370.39 1846.27,2376.68 1842.00,2381.00
             1833.19,2389.91 1827.32,2398.70 1814.00,2399.00
             1814.43,2408.27 1816.38,2417.33 1811.01,2426.00
             1808.76,2429.63 1797.56,2440.72 1794.00,2443.81
             1791.65,2445.86 1787.78,2447.94 1786.27,2450.26
             1784.58,2452.86 1784.75,2455.94 1780.66,2461.00
             1776.99,2465.55 1769.69,2471.32 1767.30,2476.00
             1763.74,2482.96 1764.40,2495.57 1753.91,2507.00
             1748.49,2512.90 1741.34,2520.38 1734.00,2523.65
             1734.00,2523.65 1714.28,2530.14 1714.28,2530.14
             1714.28,2530.14 1701.00,2543.00 1701.00,2543.00
             1701.00,2543.00 1689.63,2552.63 1689.63,2552.63
             1689.63,2552.63 1684.79,2559.00 1684.79,2559.00
             1684.79,2559.00 1677.00,2567.00 1677.00,2567.00
             1677.00,2567.00 1663.00,2580.47 1663.00,2580.47
             1663.00,2580.47 1654.95,2585.69 1654.95,2585.69
             1653.30,2587.75 1653.60,2591.83 1650.64,2597.00
             1648.21,2601.24 1637.00,2612.46 1633.00,2615.66
             1630.62,2617.56 1627.19,2619.63 1624.00,2619.27
             1621.03,2618.93 1617.52,2615.74 1615.00,2614.00
             1615.00,2614.00 1615.96,2626.00 1615.96,2626.00
             1615.96,2626.00 1615.96,2640.00 1615.96,2640.00
             1615.96,2640.00 1616.96,2651.00 1616.96,2651.00
             1617.37,2661.61 1613.06,2663.96 1606.00,2671.00
             1603.59,2673.41 1600.18,2677.23 1597.00,2678.40
             1594.76,2679.23 1589.58,2679.00 1587.00,2679.00
             1591.98,2691.95 1593.76,2717.22 1585.36,2729.00
             1582.76,2732.66 1571.71,2743.56 1568.00,2746.21
             1568.00,2746.21 1559.28,2751.63 1559.28,2751.63
             1552.57,2757.10 1544.20,2768.79 1537.00,2772.91
             1532.39,2775.55 1521.40,2776.93 1516.00,2777.00
             1516.00,2777.00 1499.00,2777.00 1499.00,2777.00
             1486.55,2777.02 1477.09,2779.45 1464.00,2775.84
             1456.16,2773.68 1444.49,2761.44 1439.39,2755.00
             1439.39,2755.00 1435.37,2749.37 1435.37,2749.37
             1435.37,2749.37 1427.00,2741.98 1427.00,2741.98
             1427.00,2741.98 1412.14,2726.42 1412.14,2726.42
             1408.86,2723.12 1406.25,2723.79 1402.00,2720.58
             1402.00,2720.58 1393.00,2712.00 1393.00,2712.00
             1381.91,2700.91 1380.02,2696.86 1380.00,2681.00
             1380.00,2681.00 1380.83,2620.00 1380.83,2620.00
             1381.51,2612.96 1381.59,2605.60 1384.53,2599.00
             1387.11,2593.20 1395.23,2585.49 1400.00,2581.09
             1401.78,2579.45 1405.92,2576.45 1406.98,2574.68
             1408.48,2572.15 1407.99,2565.14 1408.00,2562.00
             1408.03,2556.59 1408.62,2550.64 1411.70,2546.00
             1413.64,2543.08 1423.02,2533.88 1426.00,2531.04
             1427.58,2529.54 1431.67,2526.45 1432.17,2524.63
             1432.17,2524.63 1432.17,2511.00 1432.17,2511.00
             1432.17,2496.87 1438.26,2491.31 1448.00,2482.04
             1450.05,2480.09 1456.63,2475.41 1457.14,2473.62
             1458.21,2471.84 1457.00,2462.10 1457.14,2459.00
             1457.14,2459.00 1457.14,2415.00 1457.14,2415.00
             1457.14,2415.00 1456.00,2398.00 1456.00,2398.00
             1455.98,2383.70 1455.90,2369.13 1458.28,2355.00
             1459.57,2347.36 1461.71,2343.61 1467.04,2338.00
             1470.19,2334.69 1476.69,2329.37 1477.67,2325.00
             1478.47,2321.44 1476.49,2316.71 1476.19,2313.00
             1476.19,2313.00 1480.00,2273.00 1480.00,2273.00
             1480.00,2273.00 1480.00,2233.00 1480.00,2233.00
             1480.00,2233.00 1481.00,2216.00 1481.00,2216.00
             1481.00,2216.00 1481.00,2045.00 1481.00,2045.00
             1481.00,2045.00 1481.00,2011.00 1481.00,2011.00
             1481.00,2011.00 1482.82,1981.00 1482.82,1981.00
             1482.82,1981.00 1482.00,1962.00 1482.00,1962.00
             1482.00,1962.00 1483.91,1937.00 1483.91,1937.00
             1483.91,1937.00 1485.00,1904.00 1485.00,1904.00
             1485.00,1904.00 1484.00,1887.00 1484.00,1887.00
             1484.00,1887.00 1484.00,1764.00 1484.00,1764.00
             1484.00,1764.00 1487.81,1737.00 1487.81,1737.00
             1487.23,1729.97 1482.19,1717.04 1482.00,1701.00
             1482.00,1701.00 1482.00,1697.00 1482.00,1697.00
             1482.00,1697.00 1481.00,1682.00 1481.00,1682.00
             1481.00,1682.00 1481.00,1587.00 1481.00,1587.00
             1481.00,1587.00 1477.17,1554.00 1477.17,1554.00
             1476.29,1544.80 1476.18,1530.63 1473.84,1522.00
             1471.27,1512.49 1466.61,1509.68 1463.47,1502.00
             1460.54,1494.81 1460.92,1488.56 1461.00,1481.00
             1461.16,1467.50 1468.50,1455.34 1469.83,1442.00
             1471.04,1429.90 1465.82,1423.91 1466.00,1408.00
             1466.00,1408.00 1469.00,1380.00 1469.00,1380.00
             1469.00,1380.00 1468.00,1347.00 1468.00,1347.00
             1468.00,1347.00 1467.02,1333.00 1467.02,1333.00
             1467.02,1333.00 1468.00,1317.00 1468.00,1317.00
             1468.00,1317.00 1468.00,1187.00 1468.00,1187.00
             1468.01,1179.97 1469.80,1172.99 1468.54,1166.00
             1466.76,1156.16 1461.49,1151.01 1461.04,1137.00
             1460.61,1123.41 1467.43,1113.09 1466.96,1101.00
             1466.96,1101.00 1466.09,1093.00 1466.09,1093.00
             1466.09,1093.00 1465.00,1067.00 1465.00,1067.00
             1465.00,1067.00 1469.96,1030.00 1469.96,1030.00
             1469.96,1030.00 1469.00,1007.00 1469.00,1007.00
             1469.00,1007.00 1470.00,992.00 1470.00,992.00
             1470.00,992.00 1470.00,969.00 1470.00,969.00
             1470.00,969.00 1469.04,953.00 1469.04,953.00
             1469.04,953.00 1470.00,938.00 1470.00,938.00
             1470.00,938.00 1472.91,912.00 1472.91,912.00
             1472.42,903.67 1467.73,892.71 1468.01,880.00
             1468.01,880.00 1470.00,861.00 1470.00,861.00
             1470.00,861.00 1470.00,852.00 1470.00,852.00
             1470.46,848.94 1471.04,847.32 1470.90,844.00
             1470.34,831.43 1465.02,822.18 1465.00,808.00
             1465.00,808.00 1467.16,765.00 1467.16,765.00
             1467.16,765.00 1471.00,734.00 1471.00,734.00
             1471.00,734.00 1471.00,711.00 1471.00,711.00
             1471.00,711.00 1471.96,695.00 1471.96,695.00
             1471.61,686.10 1468.73,681.78 1466.44,674.00
             1464.41,667.12 1463.99,661.09 1464.00,654.00
             1464.00,654.00 1465.00,639.00 1465.00,639.00
             1465.00,639.00 1465.00,621.00 1465.00,621.00
             1464.97,603.96 1459.56,594.04 1464.00,576.00 Z" />
</svg>
